{
  "asset": {
    "version": "2.0",
    "generator": "THREE.GLTFExporter"
  },
  "scenes": [
    {
      "nodes": [
        2
      ],
      "name": "AuxScene"
    }
  ],
  "scene": 0,
  "nodes": [
    {
      "matrix": [
        1,
        0,
        0,
        0,
        0,
        -5.3212480199960055e-8,
        0.99999991179112,
        0,
        0,
        -0.99999991179112,
        -5.3212480199960055e-8,
        0,
        0,
        0,
        0,
        1
      ],
      "name": "Ponytail_Girl_In_Black_Leather_jacket_and_Grey_Short",
      "mesh": 0
    },
    {
      "children": [
        0
      ]
    },
    {
      "matrix": [
        0.1,
        0,
        0,
        0,
        0,
        0.1,
        0,
        0,
        0,
        0,
        0.1,
        0,
        0,
        0,
        -10,
        1
      ],
      "name": "_glbModel",
      "children": [
        1
      ]
    }
  ],
  "bufferViews": [
    {
      "buffer": 0,
      "byteOffset": 0,
      "byteLength": 379632,
      "target": 34962,
      "byteStride": 12
    },
    {
      "buffer": 0,
      "byteOffset": 379632,
      "byteLength": 379632,
      "target": 34962,
      "byteStride": 12
    },
    {
      "buffer": 0,
      "byteOffset": 759264,
      "byteLength": 253088,
      "target": 34962,
      "byteStride": 8
    },
    {
      "buffer": 0,
      "byteOffset": 1012352,
      "byteLength": 738072,
      "target": 34963
    }
  ],
  "buffers": [
    {
      "byteLength": 1750424,
      "uri": "data:application/octet-stream;base64,"
    }
  ],
  "accessors": [
    {
      "bufferView": 0,
      "componentType": 5126,
      "count": 31636,
      "max": [
        2.812471389770508,
        1.8583598136901855,
        0.04168128967285156
      ],
      "min": [
        -2.472182273864746,
        -2.1501922607421875,
        -18.07476234436035
      ],
      "type": "VEC3"
    },
    {
      "bufferView": 1,
      "componentType": 5126,
      "count": 31636,
      "max": [
        0.9999668002128601,
        0.9999902844429016,
        0.9999825954437256
      ],
      "min": [
        -0.9999961853027344,
        -0.9999507665634155,
        -0.9999210238456726
      ],
      "type": "VEC3"
    },
    {
      "bufferView": 2,
      "componentType": 5126,
      "count": 31636,
      "max": [
        0.9878237247467041,
        -0.0019500255584716797
      ],
      "min": [
        0.0019500000635161996,
        -0.998039960861206
      ],
      "type": "VEC2"
    },
    {
      "bufferView": 3,
      "componentType": 5125,
      "count": 184518,
      "max": [
        31635
      ],
      "min": [
        0
      ],
      "type": "SCALAR"
    }
  ],
  "materials": [
    {
      "pbrMetallicRoughness": {
        "metallicFactor": 0,
        "roughnessFactor": 0.99,
        "baseColorTexture": {
          "index": 0
        }
      },
      "alphaMode": "MASK",
      "name": "gfaasdfasdf"
    }
  ],
  "textures": [
    {
      "sampler": 0,
      "source": 0
    }
  ],
  "samplers": [
    {
      "magFilter": 9729,
      "minFilter": 9987,
      "wrapS": 10497,
      "wrapT": 10497
    }
  ],
  "images": [
    {
      "mimeType": "image/jpeg",
      "uri": "data:image/jpeg;base64,"
    }
  ],
  "meshes": [
    {
      "primitives": [
        {
          "mode": 4,
          "attributes": {
            "POSITION": 0,
            "NORMAL": 1,
            "TEXCOORD_0": 2
          },
          "indices": 3,
          "material": 0
        }
      ]
    }
  ]
}